<svg width="24.000000000000004" height="24.000000000000004" xmlns="http://www.w3.org/2000/svg">

 <g>
  <title>background</title>
  <rect fill="none" id="canvas_background" height="26" width="26" y="-1" x="-1"/>
 </g>
 <g>
  <title>Layer 1</title>
  <path stroke="#000000" id="svg_3" fill="#ecf0f1" d="m5,4.039297c-1.1046,0 -2,0.843701 -2,1.884523l0,13.191658c0,1.041199 0.8954,1.884523 2,1.884523l6,0l2,0l6,0c1.105,0 2,-0.843324 2,-1.884523l0,-13.191658c0,-1.040822 -0.895,-1.884523 -2,-1.884523l-6,0l-2,0l-6,0z"/>
  <path stroke="null" id="svg_4" fill="#000000" d="m5,4.039272c-1.1046,0 -2,0.712927 -2,1.584281l0,2.376422l18,0l0,-2.376422c0,-0.871355 -0.895,-1.584281 -2,-1.584281l-6,0l-2,0l-6,0z"/>
  <path stroke="#000000" stroke-width="0.5" id="svg_17" fill="#ffffff" d="m6,1.62358c-0.5523,0 -1,0.31431 -1,0.70207l0,2.1062c0,0.38775 0.4477,0.70207 1,0.70207s1,-0.31432 1,-0.70207l0,-2.1062c0,-0.38776 -0.4477,-0.70207 -1,-0.70207z"/>
  <path stroke="#000000" stroke-width="0.5" id="svg_14" fill="#ffffff" d="m17.898978,1.62358c-0.5523,0 -1,0.31431 -1,0.70207l0,2.1062c0,0.38775 0.4477,0.70207 1,0.70207s1,-0.31432 1,-0.70207l0,-2.1062c0,-0.38776 -0.4477,-0.70207 -1,-0.70207z"/>
  <path id="svg_10" d="m5,10.999976l0,2l2,0l0,-2l-2,0zm3,0l0,2l2,0l0,-2l-2,0zm3,0l0,2l2,0l0,-2l-2,0zm3,0l0,2l2,0l0,-2l-2,0zm3,0l0,2l2,0l0,-2l-2,0z"/>
  <path id="svg_11" d="m5,13.999976l0,2l2,0l0,-2l-2,0zm3,0l0,2l2,0l0,-2l-2,0zm3,0l0,2l2,0l0,-2l-2,0zm3,0l0,2l2,0l0,-2l-2,0zm3,0l0,2l2,0l0,-2l-2,0z"/>
  <path id="svg_12" d="m5,16.999976l0,2l2,0l0,-2l-2,0zm3,0l0,2l2,0l0,-2l-2,0zm3,0l0,2l2,0l0,-2l-2,0zm3,0l0,2l2,0l0,-2l-2,0zm3,0l0,2l2,0l0,-2l-2,0z"/>
 </g>
</svg>